<svg width="512" height="512" viewBox="0 0 512 512" fill="none" xmlns="http://www.w3.org/2000/svg">
<path d="M272.446 101.667C281.088 101.667 288.028 104.673 293.266 110.685C298.765 116.697 301.516 124.539 301.516 134.211C301.516 145.974 297.194 158.522 288.552 171.854C280.172 185.185 268.125 198.778 252.412 212.632C236.699 226.225 218.105 239.556 196.631 252.626C175.418 265.696 151.98 277.721 126.315 288.7L120.423 274.584C135.612 268.049 147.397 259.292 155.777 248.313C164.419 237.335 168.74 225.44 168.74 212.632C168.74 204.528 167.038 198.516 163.634 194.595C160.229 190.412 155.122 188.321 148.313 188.321C138.624 188.321 129.589 192.242 121.209 200.084C112.829 207.926 106.151 218.252 101.175 231.061C96.199 243.869 93.7109 257.854 93.7109 273.016C93.7109 300.724 103.139 322.682 121.994 338.889C141.112 354.834 167.17 362.808 200.167 362.808C235.521 362.808 265.245 353.136 289.338 333.792C312.844 315.123 331.103 287.565 344.119 251.121C342.119 250.833 340.095 250.55 338.048 250.273C328.358 248.966 318.014 248.313 307.015 248.313C292.611 248.313 281.612 249.62 274.018 252.234C266.423 254.848 262.626 258.639 262.626 263.605C262.626 266.481 263.542 269.356 265.375 272.231C267.47 274.845 269.827 277.59 272.446 280.466C275.065 283.341 277.291 286.478 279.124 289.876C281.219 293.013 282.267 296.542 282.267 300.463C282.267 305.691 280.302 310.134 276.374 313.794C272.446 317.454 267.208 319.284 260.661 319.284C253.067 319.284 246.912 316.408 242.198 310.657C237.746 304.906 235.521 297.064 235.521 287.131C235.521 277.459 237.485 268.702 241.413 260.86C245.603 252.757 251.365 245.699 258.697 239.687C266.292 233.674 275.065 229.1 285.017 225.963C295.23 222.565 306.36 220.866 318.406 220.866C328.62 220.866 338.31 222.173 347.476 224.787C356.641 227.14 365.284 230.015 373.402 233.413C381.521 236.811 388.984 239.818 395.793 242.432C402.602 245.046 408.887 246.353 414.648 246.353C421.196 246.353 426.172 244.784 429.576 241.647C432.981 238.249 435.599 234.197 437.433 229.492C439.528 224.787 441.36 220.082 442.932 215.377C444.765 210.672 447.122 206.75 450.003 203.613C452.884 200.215 457.335 198.516 463.358 198.516C469.382 198.516 474.096 200.477 477.5 204.397C481.166 208.057 483 213.286 483 220.082C483 232.368 476.976 242.301 464.93 249.882C453.145 257.201 437.301 260.86 417.398 260.86C408.494 260.86 399.852 260.206 391.472 258.899C383.092 257.592 374.45 256.155 365.546 254.587C363.23 254.167 360.875 253.756 358.483 253.354C343.586 296.854 321.979 329.81 293.659 352.221C264.59 374.963 228.711 386.333 186.024 386.333C159.313 386.333 136.267 382.151 116.888 373.786C97.5085 365.16 82.4501 352.874 71.7129 336.929C61.2376 320.983 56 302.292 56 280.857C56 260.73 60.3209 242.562 68.9629 226.355C77.605 210.149 89.2594 197.34 103.925 187.93C118.59 178.519 134.827 173.813 152.635 173.813C167.038 173.813 178.43 176.82 186.811 182.832C195.191 188.844 199.381 197.078 199.381 207.534C199.381 215.899 195.976 224.657 189.167 233.806C184.658 239.691 178.369 246.148 170.301 253.179C180.81 247.374 190.635 241.57 199.773 235.766C214.177 226.355 226.486 217.337 236.699 208.711C246.913 199.823 254.769 191.588 260.269 184.008C265.768 176.427 268.518 169.631 268.518 163.619C268.518 158.13 266.946 153.294 263.804 149.111C260.661 144.668 257.519 140.354 254.376 136.172C251.495 131.728 250.056 126.892 250.056 121.664C250.056 115.652 252.151 110.816 256.341 107.156C260.531 103.497 265.899 101.667 272.446 101.667Z" fill="#FFA00F"/>
</svg>
