<svg preserveAspectRatio="none" width="100%" height="100%" overflow="visible" style="display: block;" viewBox="0 0 23 23" fill="none" xmlns="http://www.w3.org/2000/svg">
<g id="mail">
<mask id="mask0_0_4" style="mask-type:alpha" maskUnits="userSpaceOnUse" x="0" y="0" width="23" height="23">
<rect id="Bounding box" width="23" height="23" fill="var(--fill-0, #D9D9D9)"/>
</mask>
<g mask="url(#mask0_0_4)">
<path id="mail_2" d="M4.31988 17.9209C3.89965 17.9209 3.5378 17.7692 3.23433 17.4657C2.93086 17.1622 2.77912 16.8004 2.77912 16.3802V6.62002C2.77912 6.19979 2.93086 5.83794 3.23433 5.53447C3.5378 5.231 3.89965 5.07926 4.31988 5.07926H18.68C19.1114 5.07926 19.4761 5.231 19.774 5.53447C20.0718 5.83794 20.2208 6.19979 20.2208 6.62002V16.3802C20.2208 16.8004 20.0718 17.1622 19.774 17.4657C19.4761 17.7692 19.1114 17.9209 18.68 17.9209H4.31988ZM18.975 7.82704L11.9159 11.9884C11.8438 12.0253 11.7764 12.0557 11.7137 12.0796C11.6511 12.1036 11.5798 12.1156 11.5 12.1156C11.4201 12.1156 11.3528 12.1036 11.2982 12.0796C11.2434 12.0557 11.1799 12.0253 11.1075 11.9884L4.02495 7.82704V16.3802C4.02495 16.4663 4.05259 16.5369 4.10785 16.5922C4.16311 16.6475 4.23379 16.6751 4.31988 16.6751H18.68C18.7661 16.6751 18.8368 16.6475 18.8921 16.5922C18.9473 16.5369 18.975 16.4663 18.975 16.3802V7.82704ZM11.5 10.6136L18.8037 6.32509H4.22021L11.5 10.6136ZM4.02495 7.51798V7.71492V6.77288V6.78941V6.75898V7.71707V7.5199V16.6751V7.51798Z" fill="var(--fill-0, white)"/>
</g>
</g>
</svg>
