<svg width="85" height="85" viewBox="0 0 85 85" fill="none" xmlns="http://www.w3.org/2000/svg">
<g clip-path="url(#clip0_249_229)">
<circle cx="42.5" cy="42.5" r="42.5" fill="url(#paint0_linear_249_229)"/>
<path d="M41.4378 33.3602L30.6685 44.1294C30.3588 44.4392 29.9963 44.5921 29.581 44.5883C29.1657 44.5841 28.7964 44.4206 28.4732 44.0977C28.1714 43.7744 28.0152 43.4084 28.0044 42.9997C27.9937 42.5911 28.1499 42.2251 28.4732 41.9018L41.682 28.693C41.8772 28.4978 42.0829 28.3603 42.2992 28.2805C42.5155 28.2003 42.7492 28.1602 43.0003 28.1602C43.2513 28.1602 43.485 28.2003 43.7013 28.2805C43.9176 28.3603 44.1233 28.4978 44.3185 28.693L57.5273 41.9018C57.8159 42.1904 57.9635 42.5477 57.9701 42.9737C57.9766 43.3997 57.8291 43.7744 57.5273 44.0977C57.2041 44.4206 56.8329 44.582 56.4138 44.582C55.9944 44.582 55.623 44.4206 55.2997 44.0977L44.5628 33.3602V57.0622C44.5628 57.5056 44.4131 57.8768 44.1138 58.1758C43.8148 58.4751 43.4437 58.6247 43.0003 58.6247C42.5569 58.6247 42.1857 58.4751 41.8867 58.1758C41.5874 57.8768 41.4378 57.5056 41.4378 57.0622V33.3602Z" fill="#8C4E00"/>
</g>
<defs>
<linearGradient id="paint0_linear_249_229" x1="44.0938" y1="18.9095" x2="103.933" y2="67.0899" gradientUnits="userSpaceOnUse">
<stop stop-color="#FFAD30"/>
<stop offset="0.5" stop-color="#FF852A"/>
<stop offset="1" stop-color="#FF5C23"/>
</linearGradient>
<clipPath id="clip0_249_229">
<rect width="85" height="85" fill="white"/>
</clipPath>
</defs>
</svg>
